<svg xmlns="http://www.w3.org/2000/svg" viewBox="0 0 1200 720" font-family="-apple-system, BlinkMacSystemFont, 'Segoe UI', Inter, system-ui, sans-serif">
  <defs>
    <marker id="arr" viewBox="0 0 10 10" refX="9" refY="5" markerWidth="7" markerHeight="7" orient="auto"><path d="M0,0 L10,5 L0,10 Z" fill="#1a1a1a"/></marker>
  </defs>

  <rect width="1200" height="720" fill="#ffffff"/>

  <!-- ════════ Title ════════ -->
  <text x="600" y="56" text-anchor="middle" font-size="22" font-weight="700" fill="#1a1a1a">Figure 5 · System architecture</text>
  <text x="600" y="80" text-anchor="middle" font-size="13" fill="#666666" font-style="italic">A three-tier design: surfaces, engine, infrastructure.</text>
  <line x1="80" y1="104" x2="1120" y2="104" stroke="#1a1a1a" stroke-width="0.6" opacity="0.3"/>

  <!-- ════════ TIER 1 · Surfaces ════════ -->
  <text x="80" y="148" font-size="11" font-weight="700" letter-spacing="2.5" fill="#8a6f37">TIER 1  ·  SURFACES</text>
  <line x1="80" y1="156" x2="1120" y2="156" stroke="#b8954a" stroke-width="1"/>

  <!-- Web UI -->
  <g>
    <rect x="160" y="180" width="400" height="116" fill="#fafafa" stroke="#1a1a1a" stroke-width="1.4"/>
    <text x="180" y="208" font-size="10" font-weight="700" letter-spacing="2" fill="#999999">A</text>
    <text x="180" y="228" font-size="18" font-weight="700" fill="#1a1a1a">Web UI</text>
    <line x1="180" y1="244" x2="540" y2="244" stroke="#e8e8e8"/>
    <text x="180" y="266" font-size="13" fill="#1a1a1a">FastAPI  ·  React  ·  Cytoscape.js</text>
    <text x="180" y="282" font-size="11" font-style="italic" fill="#666666">interactive graph + evidence panel</text>
  </g>

  <!-- CLI -->
  <g>
    <rect x="640" y="180" width="400" height="116" fill="#fafafa" stroke="#1a1a1a" stroke-width="1.4"/>
    <text x="660" y="208" font-size="10" font-weight="700" letter-spacing="2" fill="#999999">B</text>
    <text x="660" y="228" font-size="18" font-weight="700" fill="#1a1a1a">CLI</text>
    <line x1="660" y1="244" x2="1020" y2="244" stroke="#e8e8e8"/>
    <text x="660" y="266" font-size="13" fill="#1a1a1a">Typer</text>
    <text x="660" y="282" font-size="11" font-family="ui-monospace, monospace" fill="#666666">loregraph ingest | extract | view</text>
  </g>

  <!-- Arrows from Tier 1 to Tier 2 (converge at center) -->
  <line x1="360" y1="296" x2="360" y2="328" stroke="#1a1a1a" stroke-width="1.4"/>
  <line x1="840" y1="296" x2="840" y2="328" stroke="#1a1a1a" stroke-width="1.4"/>
  <line x1="360" y1="328" x2="840" y2="328" stroke="#1a1a1a" stroke-width="1.4"/>
  <line x1="600" y1="328" x2="600" y2="360" stroke="#1a1a1a" stroke-width="1.4" marker-end="url(#arr)"/>

  <!-- ════════ TIER 2 · Engine ════════ -->
  <text x="80" y="408" font-size="11" font-weight="700" letter-spacing="2.5" fill="#8a6f37">TIER 2  ·  ENGINE</text>
  <line x1="80" y1="416" x2="1120" y2="416" stroke="#b8954a" stroke-width="1"/>

  <!-- Pipeline (wide, centered) -->
  <g>
    <rect x="160" y="440" width="880" height="116" fill="#fafafa" stroke="#1a1a1a" stroke-width="1.4"/>
    <text x="180" y="468" font-size="10" font-weight="700" letter-spacing="2" fill="#999999">C</text>
    <text x="180" y="488" font-size="18" font-weight="700" fill="#1a1a1a">7-Pass Pipeline</text>
    <line x1="180" y1="504" x2="1020" y2="504" stroke="#e8e8e8"/>
    <text x="180" y="526" font-size="13" fill="#1a1a1a">orchestrator  ·  per-pass dispatch  ·  cost telemetry  ·  budget enforcement</text>
    <text x="180" y="542" font-size="11" font-family="ui-monospace, monospace" fill="#666666">chunk → entity → cluster → coref → relation → glucose → verify</text>
  </g>

  <!-- Arrows from Tier 2 to Tier 3 (split to two) -->
  <line x1="600" y1="556" x2="600" y2="588" stroke="#1a1a1a" stroke-width="1.4"/>
  <line x1="360" y1="588" x2="840" y2="588" stroke="#1a1a1a" stroke-width="1.4"/>
  <line x1="360" y1="588" x2="360" y2="620" stroke="#1a1a1a" stroke-width="1.4" marker-end="url(#arr)"/>
  <line x1="840" y1="588" x2="840" y2="620" stroke="#1a1a1a" stroke-width="1.4" marker-end="url(#arr)"/>

  <!-- ════════ TIER 3 · Infrastructure ════════ (placed before boxes so labels render) -->
  <text x="80" y="664" font-size="11" font-weight="700" letter-spacing="2.5" fill="#8a6f37">TIER 3  ·  INFRASTRUCTURE</text>

  <!-- LLM -->
  <g>
    <rect x="160" y="636" width="400" height="64" fill="#fafafa" stroke="#1a1a1a" stroke-width="1.4"/>
    <text x="180" y="660" font-size="10" font-weight="700" letter-spacing="2" fill="#999999">D</text>
    <text x="180" y="680" font-size="14" font-weight="700" fill="#1a1a1a">LLM gateway</text>
    <text x="380" y="680" font-size="11" font-style="italic" fill="#666666">Anthropic SDK · prompt cache</text>
  </g>

  <!-- Storage -->
  <g>
    <rect x="640" y="636" width="400" height="64" fill="#fafafa" stroke="#1a1a1a" stroke-width="1.4"/>
    <text x="660" y="660" font-size="10" font-weight="700" letter-spacing="2" fill="#999999">E</text>
    <text x="660" y="680" font-size="14" font-weight="700" fill="#1a1a1a">Storage</text>
    <text x="800" y="680" font-size="11" font-style="italic" fill="#666666">Postgres 17 + pgvector · SQLAlchemy 2.0</text>
  </g>
</svg>
