<svg xmlns="http://www.w3.org/2000/svg" viewBox="0 0 1400 320" font-family="-apple-system, BlinkMacSystemFont, 'Segoe UI', Inter, system-ui, sans-serif">
  <rect width="1400" height="320" fill="#f3ede0"/>

  <!-- Tagline -->
  <text x="700" y="56" text-anchor="middle" font-family="Georgia, 'Times New Roman', serif" font-style="italic" font-size="22" fill="#1a1a1a">every node cites the page it came from.</text>

  <!-- ════════ LEFT · the graph ════════ -->
  <text x="320" y="112" text-anchor="middle" font-size="10" font-weight="700" letter-spacing="3" fill="#8a6f37">THE GRAPH</text>

  <!-- edges drawn first -->
  <line x1="280" y1="180" x2="412" y2="170" stroke="#1a1a1a" stroke-width="1.4"/>
  <line x1="280" y1="180" x2="350" y2="252" stroke="#b8954a" stroke-width="1.8" stroke-dasharray="6,4"/>

  <!-- node A · circle (Agent) -->
  <circle cx="260" cy="180" r="22" fill="#fdfbf6" stroke="#1a1a1a" stroke-width="1.6"/>
  <text x="260" y="184" text-anchor="middle" font-size="11" font-weight="600" fill="#1a1a1a">A</text>

  <!-- node B · square (Object) -->
  <rect x="412" y="148" width="40" height="40" fill="#fdfbf6" stroke="#1a1a1a" stroke-width="1.6"/>
  <text x="432" y="172" text-anchor="middle" font-size="11" font-weight="600" fill="#1a1a1a">B</text>

  <!-- node C · hexagon (Concept) -->
  <polygon points="320,236 336,224 364,224 380,236 364,248 336,248" fill="#fdfbf6" stroke="#1a1a1a" stroke-width="1.6"/>
  <text x="350" y="240" text-anchor="middle" font-size="11" font-weight="600" fill="#1a1a1a">C</text>

  <!-- ════════ MIDDLE · the connection ════════ -->
  <!-- gold dashed line connects A→C edge midpoint to highlighted span on page -->
  <path d="M 320 224 Q 620 200 920 196" fill="none" stroke="#b8954a" stroke-width="1.4" stroke-dasharray="3,4"/>
  <text x="640" y="180" text-anchor="middle" font-family="Georgia, serif" font-style="italic" font-size="13" fill="#8a6f37">cites a literal span</text>

  <!-- ════════ RIGHT · the source page ════════ -->
  <text x="1060" y="112" text-anchor="middle" font-size="10" font-weight="700" letter-spacing="3" fill="#8a6f37">THE SOURCE</text>

  <!-- page -->
  <rect x="920" y="128" width="280" height="160" fill="#fdfbf6" stroke="#1a1a1a" stroke-width="1.4"/>
  <line x1="940" y1="150" x2="1180" y2="150" stroke="#c8bba0" stroke-width="1"/>
  <line x1="940" y1="166" x2="1170" y2="166" stroke="#c8bba0" stroke-width="1"/>
  <line x1="940" y1="182" x2="1160" y2="182" stroke="#c8bba0" stroke-width="1"/>
  <!-- highlighted span (matches gold dashed connection above) -->
  <rect x="940" y="192" width="120" height="10" fill="#b8954a"/>
  <line x1="940" y1="216" x2="1180" y2="216" stroke="#c8bba0" stroke-width="1"/>
  <line x1="940" y1="232" x2="1175" y2="232" stroke="#c8bba0" stroke-width="1"/>
  <line x1="940" y1="248" x2="1165" y2="248" stroke="#c8bba0" stroke-width="1"/>
  <line x1="940" y1="264" x2="1180" y2="264" stroke="#c8bba0" stroke-width="1"/>
  <line x1="940" y1="280" x2="1130" y2="280" stroke="#c8bba0" stroke-width="1"/>
</svg>
